<?xml version="1.0" encoding="utf-8"?>
<!-- Generator: Adobe Illustrator 16.0.1, SVG Export Plug-In . SVG Version: 6.00 Build 0)  -->
<!DOCTYPE svg PUBLIC "-//W3C//DTD SVG 1.1//EN" "http://www.w3.org/Graphics/SVG/1.1/DTD/svg11.dtd">
<svg version="1.1" id="Слой_1" xmlns="http://www.w3.org/2000/svg" xmlns:xlink="http://www.w3.org/1999/xlink" x="0px" y="0px"
	 width="382.188px" height="145.168px" viewBox="0 0 382.188 145.168" enable-background="new 0 0 382.188 145.168"
	 xml:space="preserve">
<path fill-rule="evenodd" clip-rule="evenodd" fill="#5C5C5C" d="M213.43,68.994c1.975,0,3.612,0,5.375,0c0,4.57,0,9.042,0,13.6
	c-2.776,0-5.507,0-8.395,0c0-1.737,0-3.414,0-5.266c-10.898,0-21.645,0-32.524,0c0-15.159,0-30.138,0-45.192c3.18,0,6.283,0,9.513,0
	c0,12.063,0,24.042,0,36.135c5.457,0,10.788,0,16.298,0c0-12.006,0-24.024,0-36.13c3.29,0,6.402,0,9.733,0
	C213.43,44.35,213.43,56.574,213.43,68.994z"/>
<path fill-rule="evenodd" clip-rule="evenodd" fill="#5C5C5C" d="M300.025,77.172c-3.196,0-6.302,0-9.587,0c0-3.171,0-6.288,0-9.405
	c0-3.128,0-6.256,0-9.5c-5.792,0-11.485,0-17.34,0c0,6.309,0,12.551,0,18.894c-3.209,0-6.262,0-9.466,0c0-14.978,0-29.958,0-45.023
	c3.107,0,6.168,0,9.433,0c0,5.663,0,11.311,0,17.041c5.86,0,11.516,0,17.306,0c0-5.65,0-11.258,0-16.995c3.275,0,6.417,0,9.653,0
	C300.025,47.181,300.025,62.131,300.025,77.172z"/>
<path fill-rule="evenodd" clip-rule="evenodd" fill="#5C5C5C" d="M356.378,64.516c0,4.327,0,8.445,0,12.653c-3.241,0-6.34,0-9.529,0
	c0-15.017,0-29.963,0-44.888c0.124-0.08,0.211-0.183,0.299-0.183c6.794-0.009,13.601-0.271,20.381,0.051
	c9.248,0.439,15.778,8.908,14.513,18.304c-1.184,8.771-7.114,13.984-16.023,14.059C362.89,64.539,359.761,64.516,356.378,64.516z
	 M356.262,56.273c0.883,0,1.623,0,2.361,0c2.124,0,4.251-0.083,6.371,0.02c3.346,0.159,5.822-1.135,7.136-4.23
	c1.387-3.273,1.195-6.517-1.233-9.231c-0.888-0.992-2.354-1.934-3.622-2.029c-3.622-0.271-7.28-0.096-11.013-0.096
	C356.262,45.885,356.262,50.961,356.262,56.273z"/>
<path fill-rule="evenodd" clip-rule="evenodd" fill="#5C5C5C" d="M236.319,49.572c5.585,0,11.082,0,16.67,0c0,2.881,0,5.616,0,8.504
	c-5.507,0-11.004,0-16.633,0c0,3.458,0,6.766,0,10.268c6.044,0,12.115,0,18.272,0c0,3.031,0,5.871,0,8.819
	c-9.293,0-18.558,0-27.97,0c0-14.979,0-29.958,0-45.021c9.149,0,18.251,0,27.438,0c0,2.826,0,5.559,0,8.462
	c-5.95,0-11.817,0-17.778,0C236.319,43.618,236.319,46.463,236.319,49.572z"/>
<path fill-rule="evenodd" clip-rule="evenodd" fill="#5C5C5C" d="M328.014,40.604c0,12.325,0,24.373,0,36.54
	c-3.08,0-6.074,0-9.298,0c0-12.111,0-24.232,0-36.52c-4.127,0-8.031,0-12.023,0c0-2.902,0-5.637,0-8.472c11.072,0,22.099,0,33.254,0
	c0,2.742,0,5.515,0,8.452C336.017,40.604,332.113,40.604,328.014,40.604z"/>
<path fill-rule="evenodd" clip-rule="evenodd" fill="#5C5C5C" d="M247.188,98.347c2.448,0,4.777-0.076,7.1,0.023
	c1.849,0.08,3.427,0.848,4.173,2.668c0.743,1.815,0.543,3.534-0.799,4.828c0.631,1.125,1.522,2.12,1.757,3.251
	c0.605,2.913-1.308,5.167-4.328,5.425c-0.263,0.022-0.53,0.008-0.795,0.008c-2.328,0.001-4.655,0.001-7.108,0.001
	C247.188,109.161,247.188,103.849,247.188,98.347z M250.507,111.719c1.397,0,2.665,0.043,3.925-0.013
	c1.151-0.05,1.724-0.811,1.767-1.881c0.046-1.101-0.531-1.865-1.672-1.935c-1.31-0.077-2.626-0.018-4.021-0.018
	C250.507,109.186,250.507,110.337,250.507,111.719z M250.503,105.021c1.176,0,2.277,0.046,3.373-0.013
	c1.071-0.06,1.628-0.746,1.665-1.776c0.037-1.079-0.454-1.912-1.587-2.023c-1.135-0.109-2.29-0.023-3.451-0.023
	C250.503,102.551,250.503,103.702,250.503,105.021z"/>
<path fill-rule="evenodd" clip-rule="evenodd" fill="#5C5C5C" d="M178.953,98.419c3.715,0,7.303,0,10.974,0c0,0.898,0,1.723,0,2.714
	c-2.548,0-5.071,0-7.703,0c0,1.138,0,2.11,0,3.266c1.327,0,2.587-0.042,3.844,0.008c3.943,0.157,6.189,3.314,4.927,6.861
	c-0.758,2.13-2.454,3.081-4.504,3.229c-2.47,0.178-4.963,0.042-7.539,0.042C178.953,109.129,178.953,103.845,178.953,98.419z
	 M182.204,111.707c1.382,0,2.652,0.1,3.897-0.027c1.295-0.134,1.954-1.07,1.914-2.32c-0.037-1.186-0.734-2.015-1.966-2.104
	c-1.247-0.092-2.504-0.02-3.845-0.02C182.204,108.756,182.204,110.108,182.204,111.707z"/>
<path fill-rule="evenodd" clip-rule="evenodd" fill="#5C5C5C" d="M243.969,106.511c-0.024,4.75-3.37,8.043-8.171,8.04
	c-4.812-0.003-8.22-3.448-8.153-8.244c0.065-4.687,3.502-7.991,8.284-7.964C240.66,98.37,243.993,101.757,243.969,106.511z
	 M235.914,101.166c-2.874-0.029-4.797,2.015-4.838,5.142c-0.042,3.289,1.784,5.396,4.7,5.421c2.901,0.024,4.888-2.131,4.881-5.295
	C240.651,103.335,238.724,101.193,235.914,101.166z"/>
<path fill-rule="evenodd" clip-rule="evenodd" fill="#5C5C5C" d="M342.772,101.249c-0.257,2.732-0.5,5.315-0.74,7.898
	c-0.021,0.211-0.016,0.425-0.037,0.636c-0.374,3.959-1.649,5.003-5.844,4.681c0-0.749,0-1.508,0-2.363
	c1.989,0.231,2.349-1.003,2.498-2.538c0.361-3.691,0.785-7.378,1.189-11.138c3.567,0,7.051,0,10.643,0c0,5.316,0,10.599,0,16.005
	c-1.014,0-2.042,0-3.266,0c0-4.35,0-8.725,0-13.181C345.668,101.249,344.312,101.249,342.772,101.249z"/>
<path fill-rule="evenodd" clip-rule="evenodd" fill="#5C5C5C" d="M283.125,98.606c3.352-0.672,3.7-0.548,5.158,1.899
	c0.617,1.037,1.146,2.126,1.849,3.442c0.722-1.324,1.392-2.423,1.936-3.582c0.727-1.552,1.767-2.41,3.574-2.034
	c0.4,0.083,0.832,0.012,1.638,0.012c-1.162,1.759-2.158,3.278-3.168,4.791c-1.92,2.871-1.919,2.866,0.004,5.767
	c1.114,1.679,2.212,3.366,3.312,5.055c0.051,0.079,0.037,0.202,0.052,0.305c-2.375,0.782-3.35,0.468-4.673-1.533
	c-0.466-0.708-0.913-1.429-1.35-2.156c-0.405-0.673-0.783-1.36-1.295-2.253c-0.881,1.471-1.634,2.788-2.446,4.065
	c-1.577,2.485-1.788,2.557-5.141,1.929c1.182-1.782,2.298-3.489,3.437-5.182c2.115-3.144,2.118-3.139-0.029-6.294
	C285.046,101.46,284.118,100.077,283.125,98.606z"/>
<path fill-rule="evenodd" clip-rule="evenodd" fill="#5C5C5C" d="M334.537,103.667c-1.543,0.045-2.94,0.338-4.155-1.349
	c-1.099-1.521-3.084-1.477-4.846-0.826c-2.358,0.87-3.563,3.728-2.819,6.546c0.67,2.548,2.837,4.09,5.367,3.622
	c0.887-0.163,2.085-0.582,2.45-1.257c0.989-1.823,2.428-1.684,4.016-1.454c-0.272,3.334-3.349,5.657-7.413,5.602
	c-4.475-0.062-7.813-3.228-8.016-7.606c-0.216-4.626,2.836-8.215,7.351-8.589C329.821,98.076,334.087,99.755,334.537,103.667z"/>
<path fill-rule="evenodd" clip-rule="evenodd" fill="#5C5C5C" d="M193.961,98.417c1.059,0,1.995,0,3.091,0c0,1.739,0,3.412,0,5.344
	c1.235,0,2.321-0.01,3.407,0.002c3.478,0.036,5.787,2.2,5.783,5.404c-0.006,3.173-2.353,5.354-5.813,5.38
	c-2.114,0.017-4.229,0.004-6.467,0.004C193.961,109.158,193.961,103.845,193.961,98.417z M197.168,111.663
	c1.359,0,2.577,0.112,3.764-0.029c1.414-0.17,2.099-1.167,2.052-2.556c-0.044-1.286-0.665-2.293-2.02-2.445
	c-1.227-0.137-2.482-0.028-3.797-0.028C197.168,108.364,197.168,109.925,197.168,111.663z"/>
<path fill-rule="evenodd" clip-rule="evenodd" fill="#5C5C5C" d="M262.486,98.416c1.053,0,1.99,0,3.085,0c0,1.739,0,3.411,0,5.345
	c1.236,0,2.32-0.01,3.406,0.002c3.48,0.036,5.79,2.195,5.787,5.398c-0.003,3.175-2.348,5.359-5.807,5.386
	c-1.961,0.016-3.921,0.001-5.881-0.005c-0.155,0-0.31-0.037-0.589-0.073C262.486,109.161,262.486,103.849,262.486,98.416z
	 M265.688,111.658c1.377,0,2.598,0.116,3.786-0.03c1.417-0.174,2.086-1.185,2.032-2.568c-0.051-1.285-0.679-2.284-2.037-2.43
	c-1.227-0.131-2.479-0.027-3.782-0.027C265.688,108.38,265.688,109.94,265.688,111.658z"/>
<path fill-rule="evenodd" clip-rule="evenodd" fill="#5C5C5C" d="M303.522,98.347c1.259,0,2.269-0.11,3.235,0.049
	c0.438,0.071,0.913,0.607,1.155,1.05c1.051,1.931,2.023,3.904,3.19,6.182c1.203-2.608,2.256-4.893,3.332-7.225
	c1.16,0,2.315,0,3.709,0c-0.901,1.855-1.743,3.602-2.594,5.343c-1.417,2.902-2.772,5.837-4.278,8.692
	c-1.423,2.694-3.562,3.318-6.369,1.966c0.11-0.777,0.227-1.589,0.359-2.512c1.905,0.55,3.052-0.21,3.548-1.858
	c0.186-0.618,0.187-1.466-0.097-2.019c-1.38-2.683-2.891-5.3-4.345-7.944C304.1,99.582,303.874,99.067,303.522,98.347z"/>
<path fill-rule="evenodd" clip-rule="evenodd" fill="#5C5C5C" d="M360.18,105.648c1.221-2.653,2.275-4.942,3.332-7.241
	c1.193,0,2.342,0,3.71,0c-1.581,3.268-3.089,6.402-4.615,9.526c-0.788,1.617-1.528,3.267-2.434,4.817
	c-1.393,2.388-3.637,2.952-6.184,1.633c0.101-0.743,0.205-1.515,0.312-2.285c0.098,0.113,0.197,0.226,0.296,0.339
	c0.973-0.528,2.118-0.881,2.874-1.628c0.913-0.902,0.911-2.035,0.149-3.293c-1.748-2.885-3.302-5.886-5.118-9.169
	c1.342,0,2.379-0.09,3.385,0.044c0.395,0.054,0.845,0.546,1.062,0.95C358,101.296,358.98,103.288,360.18,105.648z"/>
<path fill-rule="evenodd" clip-rule="evenodd" fill="#5C5C5C" d="M218.735,101.136c-1.62,0-2.931,0-4.324,0c0-0.951,0-1.773,0-2.694
	c3.898,0,7.744,0,11.688,0c0,0.864,0,1.688,0,2.669c-1.343,0-2.646,0-4.146,0c0,4.521,0,8.896,0,13.353c-1.135,0-2.072,0-3.218,0
	C218.735,110.126,218.735,105.756,218.735,101.136z"/>
<path fill-rule="evenodd" clip-rule="evenodd" fill="#5C5C5C" d="M369.25,98.408c3.186,0,6.245,0,9.418,0c0,0.88,0,1.7,0,2.703
	c-1.968,0-3.952,0-6.139,0c0,4.535,0,8.899,0,13.35c-1.185,0-2.17,0-3.279,0C369.25,109.164,369.25,103.85,369.25,98.408z"/>
<path fill-rule="evenodd" clip-rule="evenodd" fill="#5C5C5C" d="M208.776,98.384c1.088,0,2.035,0,3.104,0
	c0,5.349,0,10.666,0,16.075c-0.998,0-1.984,0-3.104,0C208.776,109.153,208.776,103.839,208.776,98.384z"/>
<path fill-rule="evenodd" clip-rule="evenodd" fill="#5C5C5C" d="M280.398,114.51c-1.064,0-2.011,0-3.097,0
	c0-5.353,0-10.666,0-16.073c1.001,0,1.985,0,3.097,0C280.398,103.727,280.398,109.042,280.398,114.51z"/>
<g>
	<g>
		<g>
			<path fill-rule="evenodd" clip-rule="evenodd" fill="#5D5C5C" d="M90.789,0c0.29,0,0.58,0,0.871,0
				c6.407,1.151,12.188,3.911,17.833,6.996c1.727,0.944,1.772,1.259,0.663,2.917c-4.49,6.707-3.646,16.782,2.755,22.843
				c5.909,5.595,15.104,6.564,21.999,2.242c0.246-0.154,0.493-0.306,0.731-0.47c0.922-0.636,1.582-0.407,2.129,0.544
				c2.003,3.485,3.725,7.101,5.137,10.864c0.849,2.261,1.616,4.542,2.145,6.907c0.284,1.268-0.173,1.692-1.354,1.941
				c-5.015,1.062-8.891,3.77-11.713,8.086c-5.915,9.044-2.022,21.958,7.942,26.157c1.339,0.565,2.706,1.048,4.135,1.324
				c0.862,0.166,1.198,0.521,1.031,1.492c-0.528,3.074-1.673,5.944-2.8,8.817c-1.203,3.063-2.626,6.026-4.282,8.869
				c-0.966,1.657-1.206,1.688-2.815,0.682c-5.446-3.41-11.191-3.813-17.052-1.377c-6.741,2.802-10.825,9.836-10.778,16.048
				c0.029,3.856,0.875,7.345,2.996,10.556c0.839,1.271,0.746,1.655-0.58,2.423c-5.294,3.068-10.915,5.373-16.793,7.058
				c-0.377,0.107-0.782,0.038-1.145,0.154c-0.951,0.305-1.308-0.145-1.494-1.007c-0.493-2.281-1.311-4.436-2.548-6.436
				c-6.584-10.635-22.227-11.294-29.719-1.27c-1.688,2.257-2.774,4.748-3.34,7.477c-0.215,1.034-0.582,1.464-1.759,1.229
				c-3.004-0.604-5.841-1.682-8.671-2.795c-3.017-1.188-5.926-2.61-8.742-4.214c-1.757-1-1.782-1.242-0.729-2.906
				c4.652-7.351,3.515-16.845-2.702-22.854c-6.046-5.845-15.594-6.421-21.979-2.295c-0.203,0.13-0.402,0.269-0.608,0.393
				c-1.252,0.747-1.597,0.709-2.329-0.536c-1.988-3.381-3.631-6.929-5.044-10.587c-0.921-2.386-1.753-4.792-2.178-7.324
				c0-0.387,0-0.774,0-1.161c0.54-0.482,1.251-0.471,1.895-0.642c5.87-1.568,10.202-5.021,12.524-10.663
				c4.288-10.412-1.48-21.735-12.383-24.565c-0.69-0.179-1.451-0.171-2.036-0.676c0-0.29,0-0.58,0-0.87
				c1.104-6.366,3.888-12.082,6.912-17.693c1.03-1.909,1.262-1.901,3.114-0.742c8.04,5.037,18.552,3.018,24.184-4.6
				c4.401-5.953,4.566-14.455,0.731-20.313c-1.196-1.828-1.159-2.051,0.733-3.115c4.644-2.611,9.513-4.714,14.601-6.303
				c1.01-0.315,2.078-0.327,3.095-0.604c0.291,0,0.581,0,0.87,0c0.505,0.585,0.496,1.347,0.676,2.037
				c2.127,8.176,9.259,13.813,17.521,13.83c8.352,0.018,15.535-5.609,17.674-13.83C90.293,1.347,90.284,0.585,90.789,0z
				 M91.701,109.022c-3.405-3.432-6.841-6.832-10.239-10.271c-0.872-0.883-1.794-1.201-3.003-0.856
				c-3.123,0.894-6.356,0.907-9.507,0.554c-14.134-1.584-25.344-14.207-23.18-30.464c0.119-0.89,0.252-1.803,0.66-2.642
				c0.626,0.201,0.917,0.674,1.284,1.04c3.769,3.752,7.547,7.493,11.27,11.291c0.943,0.962,1.847,1.199,3.1,0.714
				c3.425-1.326,6.906-2.5,10.365-3.737c1.127-0.402,1.72-1.079,2.084-2.177c1.123-3.396,2.358-6.754,3.633-10.094
				c0.528-1.383,0.306-2.332-0.736-3.352c-3.901-3.822-7.743-7.706-11.598-11.578c-0.286-0.288-0.729-0.487-0.742-1.101
				c7.694-1.623,15.002-0.939,21.675,3.543c9.137,6.136,13.572,16.645,11.219,28.103c-0.286,1.394-0.068,2.377,0.951,3.372
				c3.391,3.307,6.708,6.691,10.073,10.025c0.421,0.417,0.77,1.042,1.542,0.882c0.243-0.41,0.519-0.805,0.722-1.234
				c3.835-8.143,4.982-16.646,3.629-25.548c-2.92-19.225-20.008-34.831-39.447-35.858c-13.122-0.693-24.384,3.583-33.687,12.894
				c-16.191,16.204-16.284,43.54-0.153,59.803C51.73,112.53,64.013,116.755,78.26,115.08c5.015-0.589,9.804-2.083,14.222-4.615
				C92.645,109.757,92.089,109.413,91.701,109.022z"/>
		</g>
	</g>
</g>
<path fill-rule="evenodd" clip-rule="evenodd" fill="#5D5C5C" d="M92.482,110.465c-3.954-3.972-7.923-7.93-11.85-11.927
	c-0.593-0.603-1.112-0.507-1.812-0.328c-13.625,3.486-27.538-3.917-32.21-17.143c-1.924-5.446-1.998-10.958-0.483-16.539
	c0.61,0.163,0.88,0.65,1.241,1.009c4.042,4.024,8.092,8.04,12.086,12.111c0.719,0.732,1.277,0.832,2.235,0.469
	c3.6-1.366,7.242-2.625,10.878-3.892c0.736-0.257,1.167-0.645,1.436-1.421c1.291-3.731,2.629-7.446,4.017-11.142
	c0.305-0.813,0.134-1.282-0.453-1.862c-4.16-4.11-8.286-8.256-12.418-12.393c-0.331-0.332-0.638-0.688-0.985-1.064
	c11.806-4.073,25.962,1.793,31.751,13.05c3.177,6.179,3.934,12.641,2.289,19.376c-0.171,0.704-0.096,1.136,0.423,1.648
	c3.992,3.936,7.953,7.903,11.923,11.86c-2.662,5.517-6.567,10.026-11.304,13.839C97.151,107.801,94.954,109.353,92.482,110.465z"/>
</svg>
